<svg width="25" height="25" viewBox="0 0 25 25" fill="none" xmlns="http://www.w3.org/2000/svg">
<path d="M9.37498 22.9166C9.95028 22.9166 10.4166 22.4502 10.4166 21.8749C10.4166 21.2996 9.95028 20.8333 9.37498 20.8333C8.79968 20.8333 8.33331 21.2996 8.33331 21.8749C8.33331 22.4502 8.79968 22.9166 9.37498 22.9166Z" stroke="black" stroke-width="2" stroke-linecap="round" stroke-linejoin="round"/>
<path d="M20.8333 22.9166C21.4086 22.9166 21.875 22.4502 21.875 21.8749C21.875 21.2996 21.4086 20.8333 20.8333 20.8333C20.258 20.8333 19.7917 21.2996 19.7917 21.8749C19.7917 22.4502 20.258 22.9166 20.8333 22.9166Z" stroke="black" stroke-width="2" stroke-linecap="round" stroke-linejoin="round"/>
<path d="M1.04166 1.04163H5.20832L7.99999 14.9895C8.09524 15.4691 8.35614 15.8999 8.73702 16.2065C9.11789 16.5131 9.59447 16.676 10.0833 16.6666H20.2083C20.6972 16.676 21.1738 16.5131 21.5546 16.2065C21.9355 15.8999 22.1964 15.4691 22.2917 14.9895L23.9583 6.24996H6.24999" stroke="black" stroke-width="2" stroke-linecap="round" stroke-linejoin="round"/>
</svg>
