<svg width="95" height="92" viewBox="0 0 95 92" fill="none" xmlns="http://www.w3.org/2000/svg">
<path fill-rule="evenodd" clip-rule="evenodd" d="M23.75 7.66669H63.3333L79.1667 23V76.6667C79.1667 78.7 78.3326 80.6501 76.8479 82.0878C75.3633 83.5256 73.3496 84.3334 71.25 84.3334H23.75C21.6504 84.3334 19.6367 83.5256 18.1521 82.0878C16.6674 80.6501 15.8333 78.7 15.8333 76.6667V15.3334C15.8333 13.3 16.6674 11.35 18.1521 9.9122C19.6367 8.47442 21.6504 7.66669 23.75 7.66669ZM60.0558 15.3334H23.75V76.6667H71.25V26.174H60.0558V15.3334ZM59.375 53.6667C58.3252 53.6667 57.3184 53.2628 56.576 52.5439C55.8337 51.825 55.4167 50.85 55.4167 49.8334C55.4167 48.8167 55.8337 47.8417 56.576 47.1228C57.3184 46.4039 58.3252 46 59.375 46C60.4248 46 61.4316 46.4039 62.174 47.1228C62.9163 47.8417 63.3333 48.8167 63.3333 49.8334C63.3333 50.85 62.9163 51.825 62.174 52.5439C61.4316 53.2628 60.4248 53.6667 59.375 53.6667ZM31.6667 61.3334L43.8187 49.8334L55.4167 61.3334L59.375 57.5L63.3333 61.3334V69H31.6667V61.3334Z" fill="#686B75"/>
</svg>
