<svg width="27" height="27" viewBox="0 0 27 27" fill="none" xmlns="http://www.w3.org/2000/svg">
<path d="M13.5 4.10979L3.29167 12.2765V23.7083H10.5833V17.875H16.4167V23.7083H23.7083V12.9779C23.7084 12.7592 23.6593 12.5433 23.5646 12.3461C23.47 12.149 23.3322 11.9756 23.1615 11.839L13.5 4.10979ZM13.5 0.375L24.9829 9.5625C25.495 9.97212 25.9084 10.4916 26.1926 11.0825C26.4769 11.6735 26.6246 12.3207 26.625 12.9765V23.7083C26.625 24.4819 26.3177 25.2237 25.7707 25.7707C25.2237 26.3177 24.4819 26.625 23.7083 26.625H3.29167C2.51812 26.625 1.77625 26.3177 1.22927 25.7707C0.682291 25.2237 0.375 24.4819 0.375 23.7083V12.2765C0.375055 11.8393 0.473377 11.4077 0.662697 11.0137C0.852018 10.6197 1.12749 10.2732 1.46875 10L13.5 0.375Z" fill="#353C59"/>
</svg>
